<?xml version="1.0" standalone="no"?>
<!DOCTYPE svg PUBLIC "-//W3C//DTD SVG 20010904//EN"
 "http://www.w3.org/TR/2001/REC-SVG-20010904/DTD/svg10.dtd">
<svg version="1.0" xmlns="http://www.w3.org/2000/svg"
 width="217.000000pt" height="97.000000pt" viewBox="0 0 217.000000 97.000000"
 preserveAspectRatio="xMidYMid meet">

<g transform="translate(0.000000,97.000000) scale(0.100000,-0.100000)"
fill="#F91922" stroke="none">
<path d="M870 854 c-547 -69 -839 -281 -704 -511 38 -66 188 -170 284 -198 14
-4 30 -11 36 -16 28 -22 290 -69 427 -77 456 -25 846 59 1023 221 63 57 94
116 94 180 0 59 -13 91 -56 144 -84 102 -281 189 -529 234 -92 16 -169 22
-330 24 -116 2 -226 1 -245 -1z m435 -44 c256 -23 522 -118 630 -226 183 -183
-32 -387 -508 -481 -265 -53 -662 -30 -897 52 -132 46 -166 61 -231 106 -86
58 -122 109 -127 180 -5 66 11 99 75 160 108 102 384 193 643 212 103 8 312 6
415 -3z"/>
<path d="M578 618 c8 -8 12 -61 12 -174 0 -170 -5 -190 -47 -182 -14 3 -18 13
-18 48 0 40 -3 45 -24 48 -45 7 -54 -41 -16 -82 20 -22 32 -26 78 -26 99 0
116 35 117 236 0 80 4 124 12 132 9 9 -3 12 -57 12 -54 0 -66 -3 -57 -12z"/>
<path d="M804 596 c13 -19 49 -99 80 -178 31 -79 60 -149 64 -156 6 -9 18 10
37 55 15 37 39 93 52 123 l25 55 14 -30 c12 -26 38 -92 74 -190 l12 -30 15 35
c8 19 25 62 38 95 13 33 37 96 54 139 16 44 35 84 41 90 18 18 11 26 -21 26
-27 0 -30 -2 -19 -15 14 -16 0 -73 -45 -183 -25 -60 -31 -58 -60 23 -10 28
-26 72 -36 100 -12 35 -14 53 -7 62 8 10 -4 13 -56 13 -36 0 -66 -3 -66 -6 0
-3 9 -17 20 -31 34 -43 35 -84 5 -152 -15 -34 -31 -61 -35 -61 -14 0 -91 210
-85 230 6 19 1 20 -59 20 l-65 0 23 -34z"/>
<path d="M1435 611 c-72 -48 -88 -69 -104 -141 -14 -62 9 -128 58 -173 45 -40
86 -52 165 -45 51 4 116 37 116 59 0 6 -16 -2 -35 -17 -51 -38 -125 -38 -166
2 -69 66 -64 233 10 298 16 14 36 20 71 19 56 -1 87 -19 112 -66 l17 -32 1 51
c0 49 -1 51 -27 52 -16 0 -64 4 -108 7 -70 5 -84 4 -110 -14z"/>
</g>
</svg>
